<svg id="visual" viewBox="0 0 900 600" width="900" height="600" xmlns="http://www.w3.org/2000/svg" xmlns:xlink="http://www.w3.org/1999/xlink" version="1.1"><rect x="0" y="0" width="900" height="600" fill="#ffffff"></rect><defs><linearGradient id="grad1_0" x1="33.3%" y1="0%" x2="100%" y2="100%"><stop offset="20%" stop-color="#ffffff" stop-opacity="1"></stop><stop offset="80%" stop-color="#ffffff" stop-opacity="1"></stop></linearGradient></defs><defs><linearGradient id="grad2_0" x1="0%" y1="0%" x2="66.7%" y2="100%"><stop offset="20%" stop-color="#ffffff" stop-opacity="1"></stop><stop offset="80%" stop-color="#ffffff" stop-opacity="1"></stop></linearGradient></defs><g transform="translate(900, 0)"><path d="M0 297.5C-38.9 267.5 -77.9 237.6 -125 216.5C-172.1 195.5 -227.5 183.3 -257.6 148.7C-287.7 114.1 -292.6 57.1 -297.5 0L0 0Z" fill="#0077C8"></path></g><g transform="translate(0, 600)"><path d="M0 -297.5C50.9 -288.3 101.9 -279.1 147.5 -255.5C193.1 -231.8 233.5 -193.7 257.6 -148.7C281.7 -103.7 289.6 -51.9 297.5 0L0 0Z" fill="#0077C8"></path></g></svg>