<svg id="visual" viewBox="0 0 900 600" width="900" height="600" xmlns="http://www.w3.org/2000/svg" xmlns:xlink="http://www.w3.org/1999/xlink" version="1.1"><rect x="0" y="0" width="900" height="600" fill="#ffffff"></rect><defs><linearGradient id="grad1_0" x1="33.3%" y1="0%" x2="100%" y2="100%"><stop offset="20%" stop-color="#0077c8" stop-opacity="1"></stop><stop offset="80%" stop-color="#0077c8" stop-opacity="1"></stop></linearGradient></defs><defs><linearGradient id="grad1_1" x1="33.3%" y1="0%" x2="100%" y2="100%"><stop offset="20%" stop-color="#0077c8" stop-opacity="1"></stop><stop offset="80%" stop-color="#9fb8e4" stop-opacity="1"></stop></linearGradient></defs><defs><linearGradient id="grad1_2" x1="33.3%" y1="0%" x2="100%" y2="100%"><stop offset="20%" stop-color="#ffffff" stop-opacity="1"></stop><stop offset="80%" stop-color="#9fb8e4" stop-opacity="1"></stop></linearGradient></defs><defs><linearGradient id="grad2_0" x1="0%" y1="0%" x2="66.7%" y2="100%"><stop offset="20%" stop-color="#0077c8" stop-opacity="1"></stop><stop offset="80%" stop-color="#0077c8" stop-opacity="1"></stop></linearGradient></defs><defs><linearGradient id="grad2_1" x1="0%" y1="0%" x2="66.7%" y2="100%"><stop offset="20%" stop-color="#9fb8e4" stop-opacity="1"></stop><stop offset="80%" stop-color="#0077c8" stop-opacity="1"></stop></linearGradient></defs><defs><linearGradient id="grad2_2" x1="0%" y1="0%" x2="66.7%" y2="100%"><stop offset="20%" stop-color="#9fb8e4" stop-opacity="1"></stop><stop offset="80%" stop-color="#ffffff" stop-opacity="1"></stop></linearGradient></defs><g transform="translate(900, 0)"><path d="M0 378.6C-33.2 375.3 -66.3 372.1 -96.5 360.3C-126.7 348.5 -154 328.2 -176.5 305.7C-199 283.2 -216.9 258.5 -236.9 236.9C-256.9 215.3 -279.1 196.9 -303.1 175C-327.1 153.1 -352.8 127.7 -365.7 98C-378.6 68.2 -378.6 34.1 -378.6 0L0 0Z" fill="#d0dbf2"></path><path d="M0 252.4C-22.1 250.2 -44.2 248 -64.4 240.2C-84.5 232.3 -102.6 218.8 -117.7 203.8C-132.7 188.8 -144.6 172.3 -157.9 157.9C-171.3 143.5 -186.1 131.3 -202.1 116.7C-218.1 102.1 -235.2 85.2 -243.8 65.3C-252.4 45.5 -252.4 22.7 -252.4 0L0 0Z" fill="#6897d6"></path><path d="M0 126.2C-11.1 125.1 -22.1 124 -32.2 120.1C-42.2 116.2 -51.3 109.4 -58.8 101.9C-66.3 94.4 -72.3 86.2 -79 79C-85.6 71.8 -93 65.6 -101 58.3C-109 51 -117.6 42.6 -121.9 32.7C-126.2 22.7 -126.2 11.4 -126.2 0L0 0Z" fill="#0077c8"></path></g><g transform="translate(0, 600)"><path d="M0 -378.6C33.1 -375.6 66.2 -372.6 97.1 -362.2C128 -351.9 156.7 -334.1 181 -313.5C205.3 -292.9 225.2 -269.3 248.2 -248.2C271.2 -227.1 297.4 -208.4 318.7 -184C340 -159.6 356.5 -129.6 365.7 -98C374.9 -66.4 376.7 -33.2 378.6 0L0 0Z" fill="#d0dbf2"></path><path d="M0 -252.4C22.1 -250.4 44.1 -248.4 64.7 -241.5C85.3 -234.6 104.5 -222.8 120.7 -209C136.9 -195.2 150.1 -179.5 165.5 -165.5C180.8 -151.4 198.2 -138.9 212.5 -122.7C226.7 -106.4 237.7 -86.4 243.8 -65.3C249.9 -44.2 251.1 -22.1 252.4 0L0 0Z" fill="#6897d6"></path><path d="M0 -126.2C11 -125.2 22.1 -124.2 32.4 -120.7C42.7 -117.3 52.2 -111.4 60.3 -104.5C68.4 -97.6 75.1 -89.8 82.7 -82.7C90.4 -75.7 99.1 -69.5 106.2 -61.3C113.3 -53.2 118.8 -43.2 121.9 -32.7C125 -22.1 125.6 -11.1 126.2 0L0 0Z" fill="#0077c8"></path></g></svg>